# xmcd
#
# Track frame offsets:
#	150
#	20930
#	36260
#	56930
#	87240
#	107659
#	122368
#	147381
#	169183
#	188105
#	205769
#	223238
#	243739
#
# Disc length: 3485 seconds
#
# Revision: 1
# Processed by: cddbd v1.5.2PL0 Copyright (c) Steve Scherf et al.
# Submitted via: audiograbber 1.83.01
#
DISCID=c70d9b0d
DTITLE=The Pauline York Band - Get Down And Ride
DYEAR=2007
DGENRE=Blues
TTITLE0=I'm Real
TTITLE1=I Can't Be Satisfied
TTITLE2=Get Down And Ride
TTITLE3=Reap What You Sow
TTITLE4=Foolish
TTITLE5=Howling Wolf
TTITLE6=I Need Your Love So Bad
TTITLE7=Hustler
TTITLE8=He Belongs To Me
TTITLE9=Brand New Day
TTITLE10=It Hurts To Be In Love
TTITLE11=Temper Tantrum
TTITLE12=Brand New Day (Alternate)
EXTD=
EXTT0=
EXTT1=
EXTT2=
EXTT3=
EXTT4=
EXTT5=
EXTT6=
EXTT7=
EXTT8=
EXTT9=
EXTT10=
EXTT11=
EXTT12=
PLAYORDER=
